# xmcd CD database file
#
# Track frame offsets:
#	150
#	36741
#	76379
#	108676
#	135942
#	171283
#	205456
#	240728
#	310987
#
# Disc length: 4745 seconds
#
# Revision: 0
# Processed by: cddbd v1.5.2PL0 Copyright (c) Steve Scherf et al.
# Submitted via: CDex 1.51
#
DISCID=80128709
DTITLE=Live at the Nuyo Rican Cafe Vol 5 - Live at the Nuyo Rican Cafe Vol 5
DYEAR=2007
DGENRE=Salsa
TTITLE0=01 - A las Seis - Mi Gente
TTITLE1=02 - En mi Viejo San Juan
TTITLE2=03 - Boogaloo and Soul  - I like it like that
TTITLE3=04 - Mi Negrita me Espera
TTITLE4=05 - Quitate la Mascara
TTITLE5=06 - Pa' Huele
TTITLE6=07 - Tula
TTITLE7=08 - Quitate tu
TTITLE8=09 - Descarga Comborican
EXTD=YEAR: 2007
EXTT0=
EXTT1=
EXTT2=
EXTT3=
EXTT4=
EXTT5=
EXTT6=
EXTT7=
EXTT8=
PLAYORDER=
